<?xml version="1.0" encoding="utf-8"?>
<svg version="1.1" xmlns:xlink="http://www.w3.org/1999/xlink" width="136px" height="136px" xmlns="http://www.w3.org/2000/svg">
  <g transform="matrix(1 0 0 1 -146 -709 )">
    <path d="M 214 709  C 252.08 709  282 738.92  282 777  C 282 815.08  252.08 845  214 845  C 175.92 845  146 815.08  146 777  C 146 738.92  175.92 709  214 709  Z " fill-rule="nonzero" fill="#ffffff" stroke="none" />
    <path d="M 214 709.5  C 251.8 709.5  281.5 739.2  281.5 777  C 281.5 814.8  251.8 844.5  214 844.5  C 176.2 844.5  146.5 814.8  146.5 777  C 146.5 739.2  176.2 709.5  214 709.5  Z " stroke-width="1" stroke="#797979" fill="none" />
  </g>
</svg>