<?xml version="1.0" encoding="utf-8"?>
<svg version="1.1" xmlns:xlink="http://www.w3.org/1999/xlink" width="18px" height="18px" xmlns="http://www.w3.org/2000/svg">
  <g transform="matrix(1 0 0 1 -274 -736 )">
    <path d="M 283 736  C 288.04 736  292 739.96  292 745  C 292 750.04  288.04 754  283 754  C 277.96 754  274 750.04  274 745  C 274 739.96  277.96 736  283 736  Z " fill-rule="nonzero" fill="#ffffff" stroke="none" />
    <path d="M 283 736.5  C 287.76 736.5  291.5 740.24  291.5 745  C 291.5 749.76  287.76 753.5  283 753.5  C 278.24 753.5  274.5 749.76  274.5 745  C 274.5 740.24  278.24 736.5  283 736.5  Z " stroke-width="1" stroke="#797979" fill="none" />
  </g>
</svg>