<?xml version="1.0" encoding="utf-8"?>
<svg version="1.1" xmlns:xlink="http://www.w3.org/1999/xlink" width="33px" height="35px" xmlns="http://www.w3.org/2000/svg">
  <g transform="matrix(1 0 0 1 -65 -338 )">
    <path d="M 83.8759332793072 338.5  C 83.8759332793072 338.5  87.1550034886741 340.238900868604  87.1550034886741 340.238900868604  C 87.1550034886741 340.238900868604  97.3980462955096 355.5  97.3980462955096 355.5  C 97.3980462955096 355.5  87.1550034886741 370.761099131396  87.1550034886741 370.761099131396  C 87.1550034886741 370.761099131396  83.8759332793072 372.5  83.8759332793072 372.5  C 83.8759332793072 372.5  82.5 372.5  82.5 372.5  C 72.98 372.5  65.5 365.02  65.5 355.5  C 65.5 345.98  72.98 338.5  82.5 338.5  C 82.5 338.5  83.8759332793072 338.5  83.8759332793072 338.5  Z " fill-rule="nonzero" fill="#ffffff" stroke="none" />
    <path d="M 83.8759332793072 338.5  C 83.8759332793072 338.5  87.1550034886741 340.238900868604  87.1550034886741 340.238900868604  C 87.1550034886741 340.238900868604  97.3980462955096 355.5  97.3980462955096 355.5  C 97.3980462955096 355.5  87.1550034886741 370.761099131396  87.1550034886741 370.761099131396  C 87.1550034886741 370.761099131396  83.8759332793072 372.5  83.8759332793072 372.5  C 83.8759332793072 372.5  82.5 372.5  82.5 372.5  C 72.98 372.5  65.5 365.02  65.5 355.5  C 65.5 345.98  72.98 338.5  82.5 338.5  C 82.5 338.5  83.8759332793072 338.5  83.8759332793072 338.5  Z " stroke-width="1" stroke="#797979" fill="none" />
  </g>
</svg>